# xmcd
#
# Track frame offsets:
#	150
#	12298
#	32329
#	45672
#	73640
#	95674
#	108597
#	129477
#	164431
#	186972
#	207372
#	224114
#
# Disc length: 3220 seconds
#
# Revision: 0
# Processed by: cddbd v1.5.2PL0 Copyright (c) Steve Scherf et al.
# Submitted via: audiograbber 1.83.01
#
DISCID=b00c920c
DTITLE=Moore, Gary - Still Got The Blues
DYEAR=1990
DGENRE=Blues Rock - Electric Blues
TTITLE0=Moving On
TTITLE1=Oh Pretty Woman
TTITLE2=Walking By Myself
TTITLE3=Still Got The Blues
TTITLE4=Texas Strut
TTITLE5=Too Tired
TTITLE6=King Of The Blues
TTITLE7=As The Years Go Passing By
TTITLE8=Midnight Blues
TTITLE9=That Kind Of Woman
TTITLE10=All Your Love
TTITLE11=Stop Messin' Around
EXTD=
EXTT0=
EXTT1=
EXTT2=
EXTT3=
EXTT4=
EXTT5=
EXTT6=
EXTT7=
EXTT8=
EXTT9=
EXTT10=
EXTT11=
PLAYORDER=
